<svg width="16" height="16" viewBox="0 0 16 16" fill="none" xmlns="http://www.w3.org/2000/svg">
<path d="M1.77003 6.04667C1.71628 6.60917 0.520029 7.40167 0.573779 9.40792C0.627529 11.4142 2.21003 14.9154 7.78878 15.0042C13.3675 15.0917 15.4088 11.5904 15.4263 9.17917C15.4425 6.94417 14.3538 6.50042 14.23 5.92417C14.125 5.43167 15.075 3.17917 12.945 2.36917C10.4313 1.41292 9.49503 3.82917 9.42503 3.88167C9.35503 3.93417 8.66878 3.96917 8.07003 3.96917C7.47128 3.96917 6.82003 3.96917 6.75003 3.89917C6.68003 3.82917 5.14878 1.40042 2.93128 2.42042C0.85128 3.37917 1.80503 5.67667 1.77003 6.04667Z" fill="#B7D019"/>
<path d="M12.8849 5.29471C12.8849 5.95596 12.5099 6.51471 11.8824 6.49096C11.3411 6.47096 10.9024 5.95471 10.9024 5.29471C10.9024 4.63471 11.3411 4.10846 11.8824 4.09846C12.5211 4.08596 12.8849 4.63346 12.8849 5.29471ZM5.23613 5.20096C5.27113 6.04596 4.86113 6.46846 4.23363 6.45596C3.70613 6.44596 3.28863 6.05721 3.27738 5.24721C3.26738 4.57971 3.52363 4.06221 4.23363 4.03846C4.76113 4.02221 5.20863 4.53471 5.23613 5.20096ZM6.66113 7.93721C6.55988 8.16096 6.27863 8.23096 6.08988 8.12221C5.90238 8.01346 5.85113 7.71846 5.97363 7.50596C6.09613 7.29346 6.30488 7.26096 6.45738 7.32096C6.66113 7.40096 6.81113 7.60596 6.66113 7.93721ZM10.0411 7.56846C10.1374 7.80096 10.0211 8.07346 9.79863 8.13971C9.57613 8.20596 9.33738 8.06346 9.26613 7.82221C9.19488 7.58096 9.28363 7.37096 9.49988 7.28471C9.64113 7.22971 9.89863 7.22471 10.0411 7.56846Z" fill="#2F2F2F"/>
<path d="M3.42993 9.78859L3.47743 10.1286C3.47743 10.1286 4.79118 11.5011 7.95868 11.5486C11.2087 11.5973 12.6162 10.0123 12.6162 10.0123L11.1612 9.30859C11.1612 9.30859 9.77743 9.89484 7.99368 9.85984C6.20993 9.82484 4.45118 9.30859 4.45118 9.30859L3.42993 9.78859Z" fill="#FF6011"/>
<path d="M13.0737 8.99013C12.6637 8.39138 12.1699 8.93638 11.3962 9.22513C10.9674 9.38513 10.6837 9.47763 10.6837 9.47763C10.6837 9.47763 11.3199 9.60138 11.6012 9.75388C11.8824 9.90638 12.3724 10.2401 12.3724 10.2401C12.3724 10.2401 13.4187 9.49513 13.0737 8.99013ZM3.10118 8.92013C2.60868 9.24888 3.47868 10.1301 3.47868 10.1301C3.47868 10.1301 3.74743 9.88263 4.11118 9.73013C4.47493 9.57763 5.08368 9.46763 5.08368 9.46763C5.08368 9.46763 4.37993 9.30888 3.97118 9.07263C3.75993 8.95263 3.38243 8.73263 3.10118 8.92013Z" fill="#865B51"/>
</svg>
